<svg xmlns="http://www.w3.org/2000/svg" xmlns:xlink="http://www.w3.org/1999/xlink" width="800.46" height="522.403" viewBox="0 0 800.46 522.403" role="img" artist="Katerina Limpitsouni" source="https://undraw.co/"><defs><clipPath id="a-843"><circle cx="50" cy="50" r="50" transform="translate(0.364 0.44)" fill="none" stroke="#707070" stroke-width="1"/></clipPath><clipPath id="b-844"><ellipse cx="50.5" cy="50" rx="50.5" ry="50" transform="translate(-0.457 -0.108)" fill="none" stroke="#707070" stroke-width="1"/></clipPath><clipPath id="c-845"><circle cx="49.981" cy="49.981" r="49.981" fill="none" stroke="#707070" stroke-width="1"/></clipPath></defs><g transform="translate(-559.566 -303.937)"><g transform="translate(559.566 303.937)"><path d="M517.953,246.317c2.8-5.645,7.285-10.331,10.025-16.006s3.274-13.271-1.292-17.615c-3.877-3.688-9.951-3.74-14.587-6.412-11.813-6.806-11.8-28.425-25.3-30.293-6.567-.908-12.509,4.016-16.478,9.327s-7.132,11.506-12.637,15.2c-6.232,4.182-14.288,4.364-21.208,7.269-13.267,5.569-20.223,19.89-26.039,33.052-3.747,8.478-7.579,17.623-5.841,26.728-3.779,2.351-2.095,8.675,1.677,11.037s8.508,2.31,12.839,3.333c9.1,2.15,16.556,9.4,20.09,18.057,2.754,6.75,3.317,14.161,3.849,21.431l2.766,37.848c.41,5.613.948,11.578,4.365,16.05s10.815,6.346,14.655,2.233c3.67-3.931,2.017-10.155,1.943-15.533s4.787-12.074,9.371-9.261l1.617-3.668a57.863,57.863,0,0,0,38.165-49.755C517.1,281.483,509.994,262.34,517.953,246.317Z" transform="translate(-184.967 -175.882)" fill="#e6e6e6"/><path d="M496.8,307.69a7.286,7.286,0,0,0-4.18-12.543l.017.606a12.529,12.529,0,0,1-6.5,1.708,19.684,19.684,0,0,0-6.688,1.059,5.637,5.637,0,0,0-3.709,5.186,5.474,5.474,0,0,0,2.952,4.111,16.171,16.171,0,0,0,5.019,1.524C488.211,310.188,493.473,310.828,496.8,307.69Z" transform="translate(-153.117 -124.046)" fill="#e6e6e6"/><path d="M556.348,229.183a16.556,16.556,0,0,0,4.7-4.863,5.646,5.646,0,0,0-.366-6.37,7.565,7.565,0,0,0-5.119-1.849,39.82,39.82,0,0,0-15.085,1.779l14.994,13.284Z" transform="translate(-124.983 -158.449)" fill="#e6e6e6"/><path d="M536.16,238.887c2.02,2.23,1.376,5.689.8,8.643s-.645,6.645,1.9,8.257c2.2,1.4,5.293.257,6.9-1.794a15.9,15.9,0,0,0,2.554-7.3,51.043,51.043,0,0,0,1.066-11.53,17.777,17.777,0,0,0-3.916-10.7,12.6,12.6,0,0,0-14.285-3.337l2.322-.115a22.672,22.672,0,0,0-3.778,7.249,7.7,7.7,0,0,0,1.909,7.581C533.014,237.032,534.933,237.533,536.16,238.887Z" transform="translate(-129.79 -156.636)" fill="#e6e6e6"/><path d="M614.728,207.532l.412-1.272a8.7,8.7,0,0,0-3.916,10.235A9.512,9.512,0,0,0,614.728,207.532Z" transform="translate(-94.42 -162.678)" fill="#e6e6e6"/><path d="M599.133,225.767a16.173,16.173,0,0,0,8.083-12.1,8.9,8.9,0,0,0-.523-4.62,4.775,4.775,0,0,0-3.478-2.872l-.94,1.48c-1.349-1.161-3.614.033-4.181,1.72a9.21,9.21,0,0,0,.438,5.237,6.9,6.9,0,0,1-.082,5.195,18.678,18.678,0,0,1-2.545,2.674,2.664,2.664,0,0,0-.486,3.35C596.3,226.843,597.958,226.419,599.133,225.767Z" transform="translate(-101.271 -162.715)" fill="#e6e6e6"/><path d="M592.778,215.7a8.8,8.8,0,0,0,1.1-4.75l-2.057-.645a8.783,8.783,0,0,0-3.4,2.458,2.677,2.677,0,1,0,4.359,2.937Z" transform="translate(-104.485 -160.919)" fill="#e6e6e6"/><path d="M661.286,206.814c.186.156.371.316.557.473.164-.034.32-.1.487-.117Z" transform="translate(-72.475 -162.438)" fill="#e6e6e6"/><path d="M659.9,224.719l5.664-4.582a9.446,9.446,0,0,0,2.517-2.646,6.4,6.4,0,0,0-.456-6.161,16.949,16.949,0,0,0-3.872-4.186,7,7,0,0,0-5.344,7.609c.341,2.166,1.7,4.481.591,6.372-.432.736-1.176,1.237-1.674,1.93s-.66,1.8.025,2.307C658.111,225.928,659.163,225.315,659.9,224.719Z" transform="translate(-74.384 -162.294)" fill="#e6e6e6"/><path d="M662.594,228.546a4.9,4.9,0,0,0,3.792-1.492,33.483,33.483,0,0,0,6.554-7.2L660.2,223.889l1.324,1.549C660.343,226.206,661.215,228.281,662.594,228.546Z" transform="translate(-72.949 -156.771)" fill="#e6e6e6"/><path d="M670.209,235.111a3.256,3.256,0,0,0,3.362,2.053,4.863,4.863,0,0,0,3.467-2.219,6.458,6.458,0,0,0-5.078-10.078l1.173,1.792C673.432,229.718,669.274,232.183,670.209,235.111Z" transform="translate(-68.656 -154.591)" fill="#e6e6e6"/><path d="M728.337,258.514a6.625,6.625,0,0,0,7.95-.019,7.091,7.091,0,0,0,.424-10.391l-2.17,1.211a5.525,5.525,0,0,0-7.523,1.494A6.023,6.023,0,0,0,728.337,258.514Z" transform="translate(-44.274 -144.492)" fill="#e6e6e6"/><path d="M747.482,259.414a6.428,6.428,0,0,0,4.409-4.479l-4.219-.554a9.339,9.339,0,0,0-3.987-1.741,3.2,3.2,0,0,0-3.473,2.047,3.465,3.465,0,0,0,1.183,3.167,6.427,6.427,0,0,0,6.087,1.561Z" transform="translate(-38.189 -142.536)" fill="#e6e6e6"/><path d="M733.126,263.9a3.636,3.636,0,0,0,2.431,3.047,3.939,3.939,0,0,0,4.374-.677,2.415,2.415,0,0,0-.876-3.829l-3.163-.575C734.668,261.228,733.106,262.52,733.126,263.9Z" transform="translate(-41.252 -138.585)" fill="#e6e6e6"/><path d="M605.924,279.411l-2.448-2.236A8.015,8.015,0,0,0,605.924,279.411Z" transform="translate(-97.601 -131.857)" fill="#e6e6e6"/><path d="M592.257,281.009c1.507,7,9.047,12.7,15.891,10.6l.361.33c-2.179-2.983-2.548-7.4-2.039-11.233a39.558,39.558,0,0,1,22.819-30.4,9.416,9.416,0,0,0,4.282-2.79c.975-1.426.611-3.873-1.069-4.276a4,4,0,0,0-2.609.6l-12.72,6.26c-6.425,3.162-12.977,6.415-18.023,11.495S590.75,274.009,592.257,281.009Z" transform="translate(-102.635 -146.619)" fill="#e6e6e6"/><path d="M476.215,444.708a156.181,156.181,0,0,0-38.564-20.153c-8.44-3-17.509-5.29-26.3-3.586a31.309,31.309,0,0,0-22.15,17.682,32.792,32.792,0,0,0,1.072,28.422c4.055,7.6,11.078,13.652,13.426,21.939,1.583,5.587.833,11.536.071,17.293L399.1,541.6c-1.417,10.711-2.8,21.858.593,32.116s13.068,19.3,23.818,18.212l2.13-.16c-7.111-4.835-9.1-14.846-6.987-23.18s7.491-15.4,12.737-22.214L478.1,485.721c6.3-8.18,12.962-18.29,9.6-28.052C485.789,452.119,480.987,448.125,476.215,444.708Z" transform="translate(-191.918 -69.613)" fill="#e6e6e6"/><path d="M429.048,457.793c-1.577-.534-3.242.653-4.169,2.036a27.949,27.949,0,0,1-2.631,4.229c-2.425,2.5-6.845,2-9.461-.3s-3.749-5.857-4.257-9.3c-.609-4.135-.346-8.748,2.383-11.913,2.809-3.259,7.427-4.133,11.676-4.81,4.389-.7,9.306-1.282,12.9,1.33,2.265,1.645,3.585,4.3,5.683,6.153s5.83,2.555,7.409.244a5.688,5.688,0,0,0-.076-5.269,12.9,12.9,0,0,1-1.566-5.217c.106-2.541,2.146-4.56,4.234-6.013s4.445-2.706,5.815-4.848c1.685-2.636,1.506-6.031,2.551-8.979,2.529-7.136,11.557-10.31,14.186-17.41a6.712,6.712,0,0,0,.2-4.708c-1.1-2.828-4.076-2.273-4.258-5.729-.175-3.306,2.583-6.549,5.386-7.929,3.864-1.9,8.368-1.749,12.674-1.865s8.944-.688,12.1-3.615a10.433,10.433,0,0,0-1.109-15.52c-2.355-1.626-5.331-2.192-7.622-3.906-2.854-2.135-4.2-5.692-6.427-8.478a32.611,32.611,0,0,0-6.294-5.573l-5.721-4.245c-3.448-2.558-7.035-5.181-11.23-6.093s-9.191.378-11.292,4.122a12.738,12.738,0,0,0-1.326,5.361,77.2,77.2,0,0,0,.547,13.132l1.039,10.514c.31,3.142-.023,7.284-3.073,8.1-6.766,1.809-4.483-8.2-5.983-11.26-2.3-4.691-12.85-6.944-17.362-8.9-2.818-1.221-5.791-2.569-7.492-5.125-2.118-3.182-1.683-7.512-.022-10.954s4.366-6.244,6.824-9.171c2.505-2.983,4.787-6.147,7.066-9.307l7.929-10.995c3.39-4.7,6.953-10.437,5.028-15.9a4.278,4.278,0,0,0-7.829.944c-.844,2.951,1.407,6.718-.746,8.905a4.037,4.037,0,0,1-5.181-.1,11.769,11.769,0,0,1-3.1-4.682c-2.609-5.8-5.151-11.633-7.83-17.4-.847-1.823-1.73-4.944-4.3-4.637-2.227.267-3.43,3.513-3.353,5.4.113,2.742,1.628,5.192,2.786,7.68s1.968,5.475.7,7.907c-1.61,3.079-5.689,3.771-9.162,3.669a42.96,42.96,0,0,1-18.753-4.948q-.227,4.826-.454,9.653l-13.83-5.789-2.686-1.124c-3.889-1.628-7.782-3.257-11.786-4.579-2.273-.75-4.577-1.4-6.88-2.049l-4.2-1.184a22.039,22.039,0,0,0-8.62-1.23c-3.075.386-5.817,2.038-8.661,3.272-6.344,2.754-14.55-.017-21.349-.066a28.544,28.544,0,0,0-47.955,1.329,57.113,57.113,0,0,0-3.187,6.408l-2.768,6.2c-1.353,3.033-2.736,6.228-2.47,9.538s2.8,6.692,6.124,6.662c-7.831,3.545-9.46,15.951-2.811,21.4,1.841,1.508,4.1,2.495,5.756,4.2a9.026,9.026,0,0,1-6.781,15.3,21.983,21.983,0,0,0,26.131-8.185c2.843-4.451,4.078-10.012,7.946-13.609,5.122-4.763,13.582-4.394,19.489-.648s9.644,10.123,12.215,16.628c3.368,8.525,5.524,18.266,12.7,23.968,3.47,2.757,7.864,4.308,10.932,7.507,4.368,4.556,5.123,11.433,5.025,17.744s-.778,12.859,1.521,18.737,8.889,10.713,14.8,8.5A23.539,23.539,0,0,0,374.6,458.5l-3.23-20.035c5.366,1.511,8.845,6.716,10.853,11.916s3.07,10.825,5.982,15.579c4.585,7.486,12.888,10.712,21.334,10.684,9.124-.031,12.588-4.381,18.6-10.788a9.812,9.812,0,0,0,2.668-4.006A3.37,3.37,0,0,0,429.048,457.793Z" transform="translate(-250.858 -133.806)" fill="#e6e6e6"/><path d="M397.709,402.212l-15.3-2.4,8.021,4.822a29.006,29.006,0,0,0,7.2,3.47,9.784,9.784,0,0,0,7.749-.816l-.653-1.248C403.7,403.435,400.471,402.646,397.709,402.212Z" transform="translate(-193.683 -78.558)" fill="#e6e6e6"/><path d="M397.175,425.513l.035-.089a2.994,2.994,0,0,0-3.041-1.41,11.122,11.122,0,0,1-3.557.058,5.046,5.046,0,0,1-3.058-3.476c-.507-1.525-.657-3.157-1.234-4.657a6.835,6.835,0,0,0-5.523-4.505,4.773,4.773,0,0,0-5.134,4.309,7.973,7.973,0,0,0,1.19,3.622l1.65,3.174a21.339,21.339,0,0,0,1.6,2.73,10.662,10.662,0,0,0,17.076.243Z" transform="translate(-196.614 -73.511)" fill="#e6e6e6"/><path d="M373.558,251.023c3.883,2.289,8.746,3.867,10.591,7.98l1.065.344-3.483,4.328c-1.435,1.783-2.944,3.77-2.91,6.058.046,3.152,3.078,5.529,6.141,6.272a13.458,13.458,0,0,0,15.558-9.17c.364-1.329.515-2.707.834-4.046a32.914,32.914,0,0,1,4.169-8.956l30.936-52.045c1.284-2.161,2.608-4.745,1.642-7.066a5.551,5.551,0,0,0-5.481-2.941,16.281,16.281,0,0,0-6.239,2.1,10.625,10.625,0,0,0-8.311-5.329,31.376,31.376,0,0,0-10.2.888,62.8,62.8,0,0,0-21.4,7.352c-3.627,1.833-7.618,4.1-8.67,8.023-1.294,4.828,2.877,9.749,7.679,11.137s9.928.222,14.789-.946a11.191,11.191,0,0,1-18.706,10.559c-3.484-3.392-5.19-9.282-9.974-10.157-4.768-.873-8.558,4.213-9.611,8.945a25.418,25.418,0,0,0,11.581,26.672Z" transform="translate(-202.782 -170.416)" fill="#e6e6e6"/><path d="M427.784,302.29a91.452,91.452,0,0,0-9-18.462A55.164,55.164,0,0,0,408.561,271.5a39.514,39.514,0,0,0-12.369-7.245c-4.4-1.59-9.293-2.376-13.738-.926s-8.227,5.583-8.137,10.258c.1,5.169,4.622,9.212,9.336,11.336s9.957,3.048,14.4,5.685a21.59,21.59,0,0,1,10.37,17.43l1.12,1.852a22.387,22.387,0,0,0-6.987,3.8,7.6,7.6,0,0,0-2.654,7.141c.777,3.13,3.973,4.926,6.863,6.358l16.021,7.935c-2.719-8.108,6.183-15.653,6.676-24.19a22.362,22.362,0,0,0-1.681-8.652Z" transform="translate(-197.2 -138.205)" fill="#e6e6e6"/><path d="M318.866,282.376c3.24,2.516,8.22,1.339,11.188-1.492s4.413-6.86,5.761-10.734a41.444,41.444,0,0,0,.139,11.54,13.979,13.979,0,0,0,6.082,9.453,16.391,16.391,0,0,0,4.681,1.7,39.407,39.407,0,0,0,22.864-1.633l.065-2.493c-3.663.418-6.434-3.6-6.676-7.278s1.093-7.286,1.211-10.971-1.658-7.99-5.286-8.645a7.013,7.013,0,0,1-8.919,9.622c-4.2-1.707-5.724-6.823-8.969-9.988a13.61,13.61,0,0,0-14.935-2.1,18.522,18.522,0,0,0-9.6,12.208C315.485,275.354,315.777,279.977,318.866,282.376Z" transform="translate(-222.56 -140.182)" fill="#e6e6e6"/><path d="M398.429,261.047l.15-.244c-.9-2.612-3.708-4.143-6.444-4.531a41.873,41.873,0,0,0-8.268.273,11.988,11.988,0,0,1-7.928-1.746c-1.883-1.408-2.956-3.623-4.462-5.43s-3.943-3.292-6.13-2.428c-2.368.935-3,4.254-1.851,6.526a11.537,11.537,0,0,0,5.8,4.737,44.763,44.763,0,0,0,29.129,2.843Z" transform="translate(-202.145 -145.107)" fill="#e6e6e6"/><path d="M366.436,262.352a3.637,3.637,0,0,0,4.052,6.033l.8.789c1.063-1.9,1.5-4.452.142-6.155a3.774,3.774,0,0,0-4.993-.666Z" transform="translate(-201.272 -138.584)" fill="#e6e6e6"/><path d="M361.245,267.888a3.367,3.367,0,0,0-2.1-3.178,3.224,3.224,0,0,0-3.743,2.77,6.432,6.432,0,0,0,1.685,4.841,4.438,4.438,0,0,0,3.082,1.936c1.252.041,2.529-1.268,2.021-2.413l-1.912-.037a9.872,9.872,0,0,0,.968-3.919Z" transform="translate(-205.429 -137.295)" fill="#e6e6e6"/><path d="M334.41,256.976l2.106,1.707a25.257,25.257,0,0,0,3.923,2.786,10.747,10.747,0,0,0,7.994.979,8.229,8.229,0,0,0,5.627-5.552c.839-3.163-.53-6.448-1.87-9.433a5.724,5.724,0,0,0-1.472-2.245,1.962,1.962,0,0,0-2.483-.1,2.456,2.456,0,0,0-.4,2.359,6.433,6.433,0,0,1,.388,2.459c-.134.826-1,1.606-1.763,1.264l-.122,2.81c-3.645-1.845-5.573-6.754-9.63-7.238a5.007,5.007,0,0,0-5,7.348,10.059,10.059,0,0,0,2.7,2.854Z" transform="translate(-215.979 -145.961)" fill="#e6e6e6"/><path d="M329.543,247.235a5.552,5.552,0,0,0,2.367-5.289,3.413,3.413,0,0,0-4.633-2.473,5.5,5.5,0,0,0-2.065,3.169l-2.882,8.13,1.615-1.175a16.333,16.333,0,0,0,5.6-2.362Z" transform="translate(-219.795 -148.353)" fill="#e6e6e6"/><path d="M342,234.717a3.177,3.177,0,0,0-.981-4.77L339,229.758a3.03,3.03,0,1,0,3,4.959Z" transform="translate(-213.542 -152.466)" fill="#e6e6e6"/><path d="M355.323,240.127c1.884.9,4.269,1.76,5.908.466a3.726,3.726,0,0,0,1.141-3.551,9.029,9.029,0,0,0-1.666-3.509,33.714,33.714,0,0,0-9.376-9.053l-.911,1.184c-1.272,3.3-2.5,7.161-.726,10.225C350.89,237.953,353.17,239.1,355.323,240.127Z" transform="translate(-208.287 -154.76)" fill="#e6e6e6"/><path d="M363.132,237.456l3.523,1.594a3.3,3.3,0,0,0-3.523-1.594Z" transform="translate(-202.061 -149.148)" fill="#e6e6e6"/><path d="M357.279,245.168l-1.665.549c-1.416,2.326-.8,5.3-.143,7.943.416,1.671,1.314,3.726,3.034,3.65,1.674-.074,2.414-2.1,2.735-3.747a11.311,11.311,0,0,0,.158-5.48A3.883,3.883,0,0,0,357.279,245.168Z" transform="translate(-205.702 -145.775)" fill="#e6e6e6"/><path d="M338.094,240.355l1.232.5a1.326,1.326,0,1,0-1.232-.5Z" transform="translate(-213.065 -148.791)" fill="#e6e6e6"/><path d="M382.406,306.193a3.744,3.744,0,0,0-3.426,5.046c1.21,2.6,5.376,2.616,7.227.42a5.669,5.669,0,0,0-1.462-8.21Z" transform="translate(-195.275 -120.437)" fill="#e6e6e6"/><path d="M423.965,348.39a3.749,3.749,0,0,0-2.628,4.689l3.459.24,3.514-1.764a3.749,3.749,0,0,0-4.344-3.166Z" transform="translate(-176.831 -100.928)" fill="#e6e6e6"/><path d="M414.235,351.931a7.148,7.148,0,0,0-3,6.257,5.718,5.718,0,0,0,4.474,5.056,4.78,4.78,0,0,0,5.4-3.664c.585-3.577-3.26-6.2-4.642-9.549Z" transform="translate(-181.158 -100.191)" fill="#e6e6e6"/><path d="M508.106,339.7c.365,2.686-2.055,5.038-2.145,7.747-.107,3.214,3.392,5.715,6.592,5.4a10.423,10.423,0,0,0,7.488-5.5l.069-.3-4.676-5.286c-1.914-2.164-3.944-4.627-3.869-7.515.037-1.424.6-2.8.566-4.227a10.244,10.244,0,0,0-.678-2.988c-.422-1.26-1-2.679-2.255-3.1-1.575-.532-3.165.864-3.917,2.347a9.285,9.285,0,0,0,.275,8.745C506.466,336.564,507.864,337.923,508.106,339.7Z" transform="translate(-140.697 -111.588)" fill="#e6e6e6"/><path d="M496.9,344.054a2.686,2.686,0,0,0,2.24.144,11.718,11.718,0,0,0,3.941-1.432A3.98,3.98,0,0,0,505,339.246a4.6,4.6,0,0,0-3.75-3.482,4.032,4.032,0,0,0-3.752.573c-1.161,1.09-1.023,2.939-.8,4.515l-.245.411C496.243,342.236,496.1,343.446,496.9,344.054Z" transform="translate(-144.186 -106.492)" fill="#e6e6e6"/><path d="M668.115,422.238l-1.012-2.515C666.641,420.861,666.813,422.026,668.115,422.238Z" transform="translate(-70.048 -69.902)" fill="#e6e6e6"/><path d="M939.188,324.435c-4.327-4.694-6.976-7.4-9.708-13.219a21.421,21.421,0,0,0-16.208-12.171c-8.976-1.479-18.149.863-27.233.394-14.552-.752-27.674-8.557-41.609-12.814a174.1,174.1,0,0,0-23.779-4.9l-13.883-2.2c-15.169-2.4-30.434-4.8-45.788-4.486-4.427.092-10.6-1.239-10.24-5.653.441-5.482,10.3-4.763,12.2-9.925,1.174-3.193-1.635-6.546-4.716-7.99s-6.637-1.878-9.433-3.817-4.328-6.433-1.758-8.663l-21.368,10.954c-5.922,3.036-12.538,6.985-13.584,13.557a15.709,15.709,0,0,0-8.82,6.127c-4.006.021-7.155,3.867-7.816,7.819s.54,7.951,1.728,11.777c-1.453-2.784-3-5.673-5.558-7.49s-6.461-2.162-8.644.094c-2.241,2.315-1.717,6.2-.132,9.006s4.021,5.07,5.516,7.924c4.672,8.914-3.794,21.464-13.808,20.471q1.007-13.807,2.015-27.614a18.48,18.48,0,0,0-.7-8.446c-1.093-2.635-3.89-4.8-6.674-4.177-5.005,1.119-4.578,8.451-2.5,13.138s4.158,11.205-.093,14.076c-2.745,1.854-6.466.709-9.429-.771s-6.133-3.3-9.372-2.612-5.276,5.643-2.414,7.31l-14.238-2.474a10.128,10.128,0,0,1-12.673,8.085l-1.4-5.793-2.083-.58c2.18.607-1.231,9.8-4.289,16.824-4.111-.482-10.118-.575-10.8-1.753-3.282-5.641-2.893-19.077-8.6-22.251q-4.29-2.387-8.8-4.35a20.637,20.637,0,0,0-4.964-1.63c-3.5-.552-7.033.534-10.413,1.608-3.993,1.268-8.08,2.584-11.386,5.157a35.617,35.617,0,0,0-7.172,8.529l-19.585,28.986a31.061,31.061,0,0,0-4.536,8.5,11.106,11.106,0,0,0,1.034,9.2,7.12,7.12,0,0,0,8.339,2.849c1.892-.819,3.787-2.675,5.662-1.818,1.42.649,1.775,2.516,1.626,4.07a10.875,10.875,0,0,0-.083,4.638c.854,2.42,4.138,3.261,6.48,2.214a10.016,10.016,0,0,0,4.76-5.8c2.257-5.788,2.027-12.193,2.589-18.381s2.253-12.805,7.131-16.653c1.46-1.152,3.606-1.982,5.109-.887a3.652,3.652,0,0,1,.9,4.146,16.24,16.24,0,0,1-2.434,3.824,20.965,20.965,0,0,0-3.449,16.363l1,.617c3.8-.987,8.894.78,13.944,2.474a18.149,18.149,0,0,0-9.222,6.343c-5.837,8.19-10.062,15.94-21.609,15.843-2.739-.023-5.455-.565-8.195-.571a10.712,10.712,0,0,0-7.6,2.531c-2.077,2.034-2.719,5.13-4.5,7.43-2.336,3.025-6.241,4.255-9.807,5.628-2.606,1-5.353,2.358-6.551,4.881a12.092,12.092,0,0,0-.5,6.465c.4,3.821,1.112,8.167,4.354,10.229a10.312,10.312,0,0,0,7.936.671c3.372-.82,6.669-2.365,10.132-2.134,5.437.362,9.914,5.581,9.969,11.029.028,2.758-.777,5.921,1.051,7.987,1.718,1.941,5.125,1.595,6.9-.289a7.956,7.956,0,0,0,1.5-7.3,23.492,23.492,0,0,0-3.44-6.93,8.087,8.087,0,0,1,9.306,4.3c1.208,2.683.818,5.778,1.2,8.7s2.161,6.158,5.1,6.327a4.115,4.115,0,0,0,4.138-3.248,29.579,29.579,0,0,0-.242-4.429,5.673,5.673,0,0,1,5.73-5.28,8.085,8.085,0,0,0,1.982,10.1c2.235,1.73,5.19,2.116,7.975,2.6s5.755,1.248,7.552,3.429c2.994,3.633-.669,5.27-1.24,8.347-.7,3.778,2.455,9.356,3.667,12.97l16.709,23.375a28.276,28.276,0,0,0,4.368,5.178c5.5,4.722,14.562,4.256,19.835-.716a17.005,17.005,0,0,0,2.888-20c-3.258-5.931-9.715-9.6-12.9-15.574a34.035,34.035,0,0,0,18.683,7.683,94.207,94.207,0,0,1,33.943,14.235,47.333,47.333,0,0,0,11.672,29.053,41.834,41.834,0,0,1,12.138-24.106c4.291-4.185,10.154-7.559,16.041-6.433s10.353,8.632,6.792,13.454l8.951.666,4.014,9.98a3.456,3.456,0,0,1,3.371-2.34c2.793.422,4.752,3.02,7.409,3.98,5.008,1.809,10.362-3.2,11.01-8.487s-1.867-10.388-4.309-15.119a28.22,28.22,0,0,0,29-42.818,71.864,71.864,0,0,1,20.187-14.862c6.985-3.451,14.625-5.819,20.73-10.66s10.386-13.246,7.449-20.462c-2.074-5.1-7.277-8.558-8.834-13.837-2.254-7.642,4.593-15.546,12.328-17.455s15.812.438,23.432,2.766c-1.171-7.84,7.917-15.19,15.339-12.406l9.326-3.776c-3.6,7.945-11.412,13-17.153,19.567s-9.161,17.263-3.163,23.6l25.79-23.375,26.976-24.451-1.288-3.784C921.889,331.121,931.051,328.448,939.188,324.435Z" transform="translate(-138.728 -148.453)" fill="#e6e6e6"/><path d="M497.732,376.681a2.96,2.96,0,0,0,.017,3.4,2.605,2.605,0,0,0,3.319.045,7.6,7.6,0,0,0,2.1-2.91,4.736,4.736,0,0,0,4.815,2.522,11.843,11.843,0,0,0,5.313-2.215,11.648,11.648,0,0,0,3.226-2.8,4.607,4.607,0,0,0,.811-4.056,6.989,6.989,0,0,0-2.1-2.706l-6.824-6.3-.771-.231a4.347,4.347,0,0,0-6.272-.067c-1.413,1.581-1.419,3.944-1.2,6.053s.552,4.356-.387,6.257C499.244,374.761,498.332,375.624,497.732,376.681Z" transform="translate(-143.79 -95.834)" fill="#e6e6e6"/><path d="M634.849,442.013a47.434,47.434,0,0,1-36.045-36.23c-.838-4.176-1.218-8.739-4-11.968-2.69-3.126-7.084-4.254-11.208-4.254s-8.189.949-12.3,1.206c-7.2.449-14.821-1.452-19.966-6.5-2.437-2.391-4.281-5.428-7.127-7.315-3.825-2.535-8.9-2.533-13.254-1.1-4.854,1.6-8.74,5.978-14.048,5.375-5.52-.627-11.918-2.578-14.082,4.691-.623,2.093-.411,4.388-1.2,6.424-1.216,3.138-4.445,4.907-7,7.1-5.144,4.415-7.878,11.123-8.8,17.839s-.208,13.537.5,20.278c.385,3.636.891,7.549,3.389,10.22,3.482,3.723,9.324,3.579,14.4,3.159l17.7-1.462c3.181-.263,6.806-.374,9.071,1.875,1.357,1.348,1.931,3.3,3.125,4.793a7.358,7.358,0,0,0,8.977,1.81,14.9,14.9,0,0,0,11.243,22.081l.455.287c-3.778,6.47-7.7,13.735-6.131,21.062,1.343,6.282,6.546,11.319,7.4,17.686.781,5.842-2.268,11.817-.919,17.555,1.366,5.81,7.234,9.861,13.187,10.294s11.8-2.208,16.413-6,8.177-8.671,11.69-13.5c2.169-2.979,4.394-6.08,5.139-9.69.793-3.841-.126-8.1,1.742-11.546,2.154-3.977,7.267-5.468,9.847-9.182,3.342-4.81,1.373-11.359,2.112-17.169C617,465.461,635.264,456.5,634.849,442.013Z" transform="translate(-148.927 -89.39)" fill="#e6e6e6"/><path d="M590.894,456.157c-.5,2.245-2.6,3.723-4.6,4.853s-4.206,2.27-5.227,4.331c-1.045,2.111-.568,4.627-.021,6.918q1.706,7.15,4.019,14.136a143.959,143.959,0,0,0,7.812-17.484,22.972,22.972,0,0,0,1.714-7.01,8.668,8.668,0,0,0-2.357-6.624Z" transform="translate(-107.611 -54.449)" fill="#e6e6e6"/><path d="M677.925,442.435l-7.531-8.693c-1.717-1.982-3.674-4.1-6.275-4.429l-1.071.684,6.529,15.547a14.761,14.761,0,0,0,3.943,6.2c1.948,1.531,5.107,1.825,6.732-.046a4.992,4.992,0,0,0,.59-4.952,14.712,14.712,0,0,0-2.918-4.312Z" transform="translate(-71.709 -65.733)" fill="#e6e6e6"/><path d="M693.311,447.764a7.216,7.216,0,0,0,4.267-3.977,21.386,21.386,0,0,0,1.526-5.792l1.287-7.784-.561-.144a2.5,2.5,0,0,0-3.169.879,12.413,12.413,0,0,0-1.42,3.317,4.018,4.018,0,0,1-2.294,2.637c-2.015.608-3.923-1.527-6.026-1.444a3.788,3.788,0,0,0-3.291,3.378,7.344,7.344,0,0,0,1.377,4.826C686.8,446.443,690.128,448.68,693.311,447.764Z" transform="translate(-62.772 -65.513)" fill="#e6e6e6"/><path d="M700.153,450.373l5.785-15.236a14.86,14.86,0,0,0-5.785,15.236Z" transform="translate(-55.735 -63.202)" fill="#e6e6e6"/><path d="M721.225,437.2l-1.17.05a7.547,7.547,0,0,0-.064,6.682,15.059,15.059,0,0,0,4.364,5.305,30.657,30.657,0,0,0,9.627,5.376,61.264,61.264,0,0,0,15.82,2.437l9.187.6c1.459.1,3.346-.09,3.751-1.494.335-1.16-.653-2.25-1.576-3.029a57.728,57.728,0,0,0-28.392-12.886C728.8,439.633,724.591,439.385,721.225,437.2Z" transform="translate(-47.285 -62.307)" fill="#e6e6e6"/><path d="M767.255,469.313l-6.607-6.407c-2.142-2.077-5.351-4.278-7.806-2.582-1.411.975-1.846,2.876-3.042,4.105a5.874,5.874,0,0,1-5.448,1.3,17.332,17.332,0,0,1-5.259-2.493l-5.465-3.391-5.657-3.511-4.256,4.136c.185-2.035-2.529-3.358-4.408-2.553a6.809,6.809,0,0,0-3.39,4.846,26.5,26.5,0,0,1-1.627,5.892c-2.161,4.137-7.407,5.362-12.023,6.055s-9.844,1.669-12.315,5.629c-2.058,3.3-1.441,7.533-.754,11.359l2.6,14.475a7.912,7.912,0,0,0,2,4.726c2.285,2.017,5.825.791,8.614-.439a58.251,58.251,0,0,1,18.513-5.365,26.716,26.716,0,0,1,18.342,4.7c3.308,2.519,5.83,6.005,9.335,8.242a18.516,18.516,0,0,0,16.2,1.413,24.114,24.114,0,0,0,12.318-10.984,28.855,28.855,0,0,0-.622-28.565A56.644,56.644,0,0,0,767.255,469.313Z" transform="translate(-60.627 -53.99)" fill="#e6e6e6"/><path d="M739.152,506.791a3.891,3.891,0,0,0-.247,4.613,6.374,6.374,0,0,0,4.072,2.621,18.926,18.926,0,0,0,4.951.227l.05-1.235a12.685,12.685,0,0,0-2.9-5.844C743.483,505.657,740.664,505.191,739.152,506.791Z" transform="translate(-39.018 -32.494)" fill="#e6e6e6"/><path d="M780.857,507.5l-.789-.289-5.638,8.5c-1.011,1.524-2.067,3.354-1.45,5.076.73,2.038,3.429,2.635,5.526,2.1a8.718,8.718,0,0,0,6.3-6.92A8.56,8.56,0,0,0,780.857,507.5Z" transform="translate(-24.009 -31.878)" fill="#e6e6e6"/><path d="M790.1,502.393l-5.188-4.125q-.1,2.87-.208,5.74l-.195,0a38.136,38.136,0,0,1,3.382,3.363c1.215,1.033,3.252,1.5,4.29.3a2.714,2.714,0,0,0,.112-2.995,7.966,7.966,0,0,0-2.193-2.283Z" transform="translate(-18.921 -35.764)" fill="#e6e6e6"/><path d="M726.475,380.459c-2.177-.068-4.587-.2-6.274,1.177a8.416,8.416,0,0,0-1.448,1.688l-.595.833a22.9,22.9,0,0,0-2.318,3.727,4.917,4.917,0,0,0-.315,4.066,2.357,2.357,0,0,0,3.479,1c.93-.862.713-2.425,1.417-3.481a3.252,3.252,0,0,1,2.62-1.253,17.223,17.223,0,0,1,2.991.338,14.432,14.432,0,0,0,14.124-22.063l-.175-.535a6.446,6.446,0,0,0-6.538,5.04c-.487,2.537.545,5.483-.992,7.558C731.154,380.3,728.652,380.527,726.475,380.459Z" transform="translate(-49.03 -93.272)" fill="#e6e6e6"/><path d="M738.822,357.328l-.332-.029a16.829,16.829,0,0,0-5.521,2.057,2.558,2.558,0,0,0-1.258,1.276,1.856,1.856,0,0,0,.439,1.708,5.478,5.478,0,0,0,1.464,1.1,8.711,8.711,0,0,0,2.66,1.19,2.953,2.953,0,0,0,2.716-.7,3.925,3.925,0,0,0,.637-3.252,17.1,17.1,0,0,0-.806-3.35Z" transform="translate(-41.89 -97.033)" fill="#e6e6e6"/><path d="M714.66,378.415a8.387,8.387,0,0,0,1.092-2.714l.609-2.24-2.17-1.318a12.565,12.565,0,0,0-2.841,2.025,4.238,4.238,0,0,0-1.3,3.139,2.591,2.591,0,0,0,2.13,2.418,2.846,2.846,0,0,0,2.482-1.309Z" transform="translate(-51.282 -90.582)" fill="#e6e6e6"/><path d="M548.654,235.9c-.858.535-.616,1.828-.268,2.777l1.2,3.27.559-2.116a4.5,4.5,0,0,0,.618-2.729C550.57,236.171,549.461,235.4,548.654,235.9Z" transform="translate(-121.683 -149.865)" fill="#e6e6e6"/></g><g transform="translate(1203.636 644.56)"><circle cx="50" cy="50" r="50" transform="translate(0.364 0.44)" fill="#C50909"/><g transform="translate(0)" clip-path="url(#a-843)"><g transform="translate(18.935 23.444)"><path d="M473.764,72.454a12.339,12.339,0,1,0-18.783,6.554l-7.531,18.877,37-3.135S465.7,84.688,465.464,80.668A12.325,12.325,0,0,0,473.764,72.454Z" transform="translate(-429.219 -47.59)" fill="#ed9da0"/><path d="M692.845,283.873,696,282.415a5.941,5.941,0,0,1,4.68,4.527c1.075,4.067,5.984,25.856,5.984,25.856a6.317,6.317,0,0,1,1.228,6.752s.574,4.335-1.228,4.987-13.873,9.971-13.873,9.971Z" transform="translate(-637.564 -237.903)" fill="#090814"/><path d="M417.544,230.033l-8.156-4.967c-1.881,9.36-11.585,9.874-13.466.515l-6,4.453-12.66,4.22,1.841,49.084,25.7-.074,0,.074h23.559l1.841-49.084Z" transform="translate(-371.767 -189.74)" fill="#090814"/><path d="M351.04,283.873l-3.155-1.458a5.941,5.941,0,0,0-4.68,4.527c-1.075,4.067.921,27.583.921,27.583a6.317,6.317,0,0,0-1.228,6.752s-.574,4.335,1.228,4.987,6.915.942,6.915.942Z" transform="translate(-342.387 -237.903)" fill="#090814"/><path d="M451.346,16.009l-.937,9.556S440.58,6.493,452.8,2.966c0,0-1.19-1.612.537-2.148s18.106-3.108,19.411,4.91c0,0,8.556,5.3,5.967,10.976l-3.051,6.67-2.762.153s-.078-12.7-4.3-12.276S451.346,16.009,451.346,16.009Z" transform="translate(-430.236 0)" fill="#090814"/></g></g></g><g transform="translate(934.457 518.108)"><ellipse cx="50.5" cy="50" rx="50.5" ry="50" transform="translate(-0.457 -0.108)" fill="#C50909"/><g transform="translate(0 0)" clip-path="url(#b-844)"><g transform="translate(14.002 25.614)"><path d="M246.671,80.657l-.5,8.152,15.223.772-4.714-10.741Z" transform="translate(-217.093 -50.9)" fill="#ed9da0"/><path d="M249.056,103.531c4.08,2.144,10.607,1.558,18,0l1.156,60.37s-24.1,7.808-32.057-2.3l5.155-51.653,7.745-6.412h0Z" transform="translate(-220.369 -66.841)" fill="#d6d6e3"/><path d="M211.776,94.67l10.974,6.5a10.567,10.567,0,0,1,4.759,12.063L219.028,142.2s13.811,23.728,9.324,25.821c-10.085,4.7-25.134,3.559-25.134,3.559l3.363-56.81,5.2-20.1h0Z" transform="translate(-169.73 -61.119)" fill="#3f3d58"/><path d="M312.424,102.924l-12.409,4.821-2.931,35.8-8.208,28.838c13.9,5.074,12.6,2.71,12.6,2.71l2.3-49.759,8.641-22.4h0Z" transform="translate(-283.26 -66.449)" fill="#3f3d58"/><path d="M314.8,178.748l.042-.2,12.684-58.667a5.044,5.044,0,1,0-9.832-2.259L303.76,174.9l11.037,3.852Z" transform="translate(-303.76 -73.428)" fill="#3f3d58"/><circle cx="12.35" cy="12.35" r="12.35" transform="translate(23.832 7.222)" fill="#ed9da0"/><path d="M213.635,3.567c-2.72.956-4.277,1.5-5.7,2.877-2.408,2.32-2.806,5.421-3.175,8.3a16.019,16.019,0,0,0,.659,8.5c.45,1.136,2.636,6.2,6.818,6.838.821.126,2.75.159,2.194-.252-5.144-3.8-7.339-6.09-7.159-11.943.112-3.637,5.669-7.563,8.968-8.269a5.619,5.619,0,0,1,4.566,1.064c2.773,2.277,2.655,11.691,5.579,13.659,1.2.81.4-4.888,1.249-3.964,1.672,1.823.6,4.613.3,5.678-1.425,5.043-2.918,1.314-4.309,5.62-1.5,4.649,11.678,7.78,12.126,8.818.78,1.806-10.366,10.375-7.306,11.861,3.883,1.887,6.944-.57,8.749,1.536,1.009,1.177.463,2.425,2.286,6.088.595,1.2.894,1.794,1.156,1.773,1.246-.1,3.265-10.078,0-19.369-1.37-3.9-2.712-7.719-6.307-10.707-1.9-1.58-3.5-2.148-3.951-3.992-.649-2.636,2.045-3.76,2.584-7.917.369-2.843.628-6.91-.377-9.516-.948-2.462-1.771-4.6-3.925-6.535-.518-.465-4.694-3.628-9.122-3.718-2.038-.041-3.537,2.738-5.9,3.569h0Z" transform="translate(-183.328 0.004)" fill="#090814"/><path d="M237.407,211.789c-3.812-.4-7.1,1.315-7.336,3.834s2.662,4.884,6.477,5.285a9.257,9.257,0,0,0,4.493-.578l16.181,1.489.486-7.893-16-.63a9.388,9.388,0,0,0-4.3-1.506Z" transform="translate(-207.7 -136.698)" fill="#ed9da0"/><path d="M208.227,113.916h0a7.516,7.516,0,0,1,8.406,5.894c2.84,13.5,7.937,42.27-.068,42.75a77.092,77.092,0,0,1-20.515-1.883l2.512-14.444,8.164-.837-4.8-22.462a7.519,7.519,0,0,1,6.3-9.018Z" transform="translate(-158.805 -73.498)" fill="#3f3d58"/></g></g></g><g transform="translate(657.46 504.336)"><path d="M50.08,0A50.08,50.08,0,1,1,0,50.08,50.08,50.08,0,0,1,50.08,0Z" transform="translate(0 0)" fill="#C50909"/><g transform="translate(0 0)" clip-path="url(#c-845)"><g transform="translate(21.167 18.373)"><ellipse cx="8.654" cy="8.654" rx="8.654" ry="8.654" transform="translate(23.21 4.758)" fill="#ffb9b9"/><path d="M956.073,323.643s-.394,12.195-2.36,13.768,7.081,8.261,7.081,8.261l5.9-9.441v-8.654Z" transform="translate(-931.683 -308.264)" fill="#ffb9b9"/><path d="M793.638,230.753l-4.776-7.212-2.7,3.671-3.934,11.015,3.147,42.878,18.489.394,2.36-49.173-5.9-7.081Z" transform="translate(-765.314 -198.851)" fill="#f2f2f2"/><path d="M898.835,372.48l3.147-.393s.786.393,1.18,3.147,5.112,27.144,5.112,27.144l-6.294,29.9-7.081-9.441,4.329-16.521L894.9,389.788Z" transform="translate(-850.449 -337.825)" fill="#090814"/><path d="M862.155,248.1h-2.36l-5.9,31.864,5.507,24.784,5.508-9.048-1.574-9.835.785-8.654,2.754-5.114Z" transform="translate(-853.894 -213.838)" fill="#090814"/><path d="M940.79,297.6l1.574-.394s1.18-6.689,3.934-5.9,9.835,1.574,9.835-1.574-6.689-5.9-10.621-5.508S934.89,285.8,935.283,291.7a39.6,39.6,0,0,0,2.932,11.641l.207-3.5Z" transform="translate(-914.039 -284.185)" fill="#090814"/><path d="M959.034,358.845l-12.588-5.114-2.95-2.164-8.851,39.142-5.9-17.7,1.77-22.619-16.325,8.458L919.7,385.6l.787,10.228-2.36,8.261s-8.261,5.9-5.507,12.195,5.9,6.689,5.9,6.689,13.375-12.588,14.163-15.735,1.967-8.654,1.967-8.654,6.689,25.177,14.555,24.783,7.868-8.654,7.868-8.654l-1.967-8.654L951.955,397l1.574-14.948Z" transform="translate(-907.893 -324.583)" fill="#090814"/></g></g></g></g></svg>