<svg xmlns="http://www.w3.org/2000/svg" width="884.948" height="800" viewBox="0 0 884.948 800" xmlns:xlink="http://www.w3.org/1999/xlink" role="img" artist="Katerina Limpitsouni" source="https://undraw.co/"><g transform="translate(-517.525 -140)"><path d="M769.084,859.961H95.322a50.249,50.249,0,0,1-50.191-50.193V221.408a50.249,50.249,0,0,1,50.191-50.191H769.084a50.249,50.249,0,0,1,50.193,50.191V809.769a50.25,50.25,0,0,1-50.193,50.192Z" transform="translate(473.977 78.457)" fill="#fff"/><path d="M769.149,861.607H95.386a51.832,51.832,0,0,1-51.773-51.774V221.472A51.831,51.831,0,0,1,95.386,169.7H769.149a51.832,51.832,0,0,1,51.774,51.773v588.36a51.832,51.832,0,0,1-51.774,51.774ZM95.386,172.862a48.664,48.664,0,0,0-48.61,48.61V809.833a48.666,48.666,0,0,0,48.61,48.611H769.149a48.667,48.667,0,0,0,48.611-48.611V221.472a48.666,48.666,0,0,0-48.611-48.61Z" transform="translate(473.912 78.393)" fill="#090814"/><path d="M652.3,721.432H199.992a21.35,21.35,0,0,1,0-42.7H652.3a21.35,21.35,0,0,1,0,42.7Z" transform="translate(479.633 99.957)" fill="#d6d6e3"/><path d="M673.62,700.05c0,5.678-3.057,10.818-7.978,14.534A32.1,32.1,0,0,1,646.4,720.61H206.624c-15.035,0-27.224-9.2-27.224-20.56,0-5.677,3.057-10.817,7.98-14.534a31.986,31.986,0,0,1,19.244-6.026H646.4C661.431,679.49,673.62,688.7,673.62,700.05Z" transform="translate(479.664 99.989)" fill="#e6e6e6"/><path d="M510.686,650.671h-183.9a29.066,29.066,0,0,1-29.032-29.034V380.8a29.066,29.066,0,0,1,29.032-29.032l138.955.792L539.72,432.5V621.637A29.066,29.066,0,0,1,510.686,650.671Z" transform="translate(484.68 86.106)" fill="#d6d6e3"/><path d="M417.663,443.087h-70.4a5.536,5.536,0,1,1,0-11.071h70.4a5.535,5.535,0,0,1,0,11.071Z" transform="translate(486.543 89.506)" fill="#090814"/><path d="M486.977,483.457H346.526a5.536,5.536,0,1,1,0-11.071H486.977a5.535,5.535,0,1,1,0,11.071Z" transform="translate(486.512 91.216)" fill="#090814"/><path d="M486.946,520.936H347.262a5.535,5.535,0,1,1,0-11.07H486.946a5.535,5.535,0,0,1,0,11.07Z" transform="translate(486.543 92.803)" fill="#090814"/><path d="M382.494,559.1H346.526a5.536,5.536,0,0,1,0-11.071h35.968a5.535,5.535,0,0,1,0,11.071Z" transform="translate(486.512 94.42)" fill="#090814"/><path d="M532.63,434.356H461.008A14.576,14.576,0,0,1,446.449,419.8V352.525h3.163V419.8a11.409,11.409,0,0,0,11.4,11.4H532.63v3.163Z" transform="translate(490.979 86.138)"/><path d="M418.258,663.393a25.816,25.816,0,0,1-25.786-25.786V612.785H375.021a9.5,9.5,0,0,1-7.529-15.284L411.4,540.383a9.229,9.229,0,0,1,14.74.142l42.911,58.089a9.881,9.881,0,0,1-7.949,15.752H444.044v23.241a25.816,25.816,0,0,1-25.786,25.786Z" transform="translate(487.551 93.943)" fill="#C50909"/><circle cx="4.745" cy="4.745" r="4.745" transform="translate(1052.074 505.087)" fill="#d6d6e3"/><circle cx="4.745" cy="4.745" r="4.745" transform="translate(1073.426 565.974)" fill="#d6d6e3"/><circle cx="4.745" cy="4.745" r="4.745" transform="translate(738.146 521.692)" fill="#d6d6e3"/><circle cx="4.745" cy="4.745" r="4.745" transform="translate(742.893 613.42)" fill="#d6d6e3"/><circle cx="4.745" cy="4.745" r="4.745" transform="translate(738.146 684.587)" fill="#d6d6e3"/><circle cx="4.745" cy="4.745" r="4.745" transform="translate(1051.283 684.587)" fill="#d6d6e3"/><circle cx="4.745" cy="4.745" r="4.745" transform="translate(1051.283 613.42)" fill="#d6d6e3"/><circle cx="109.387" cy="109.387" r="109.387" transform="translate(1183.699 140)" fill="#C50909"/><path d="M-9375.958,4747.846a47.659,47.659,0,0,1-14.044-33.9,48.006,48.006,0,0,1,47.955-47.95,48,48,0,0,1,47.936,47.95,48,48,0,0,1-47.936,47.941A47.63,47.63,0,0,1-9375.958,4747.846Zm-4.452-33.9a38.1,38.1,0,0,0,11.233,27.117,38.149,38.149,0,0,0,27.13,11.242,38.4,38.4,0,0,0,38.353-38.358,38.4,38.4,0,0,0-38.353-38.358A38.4,38.4,0,0,0-9380.41,4713.95Zm33.56,21.593v-.045a4.793,4.793,0,0,1,4.8-4.791,4.794,4.794,0,0,1,4.789,4.791v.045a4.8,4.8,0,0,1-4.789,4.8A4.8,4.8,0,0,1-9346.851,4735.542Zm0-14.428v-28.767a4.794,4.794,0,0,1,4.8-4.791,4.8,4.8,0,0,1,4.789,4.791v28.767a4.8,4.8,0,0,1-4.789,4.8A4.8,4.8,0,0,1-9346.851,4721.114Z" transform="translate(10635.143 -4465.853)" fill="#fff"/><path d="M384.336,700.05a30.833,30.833,0,0,1-3.308,14.534c-2.323,4.024-5.121,6.137-7.981,6.026H190.689c-6.234,0-11.289-9.2-11.289-20.56a30.829,30.829,0,0,1,3.309-14.534c2.321-4.031,5.12-6.145,7.98-6.026h182.36C379.282,679.49,384.336,688.7,384.336,700.05Z" transform="translate(479.664 99.989)" fill="#C50909"/></g></svg>