<svg xmlns="http://www.w3.org/2000/svg" width="869.236" height="800" viewBox="0 0 869.236 800" xmlns:xlink="http://www.w3.org/1999/xlink" role="img" artist="Katerina Limpitsouni" source="https://undraw.co/"><g transform="translate(-516.227 -112.426)"><g transform="translate(868.477 149.735)"><path d="M-17161.676,2835.2h-175.77a12.571,12.571,0,0,1-12.557-12.555V2345.554a12.571,12.571,0,0,1,12.557-12.555h175.77a12.568,12.568,0,0,1,12.553,12.555v477.089A12.568,12.568,0,0,1-17161.676,2835.2Zm-87.881-58.586a16.762,16.762,0,0,0-16.748,16.737,16.763,16.763,0,0,0,16.748,16.738,16.756,16.756,0,0,0,16.738-16.738A16.755,16.755,0,0,0-17249.557,2776.613Z" transform="translate(17350.002 -2182.34)" fill="#C50909"/><path d="M12.555,0H154.846A12.555,12.555,0,0,1,167.4,12.555V150.661H0V12.555A12.555,12.555,0,0,1,12.555,0Z" transform="translate(16.74)" fill="#e6e6e6"/><path d="M2.093,0h29.3A2.093,2.093,0,0,1,33.48,2.093V23.018a2.093,2.093,0,0,1-2.093,2.093H2.093A2.093,2.093,0,0,1,0,23.018V2.093A2.093,2.093,0,0,1,2.093,0Z" transform="translate(54.405 50.22)" fill="#090814" opacity="0.348"/><path d="M2.093,0h29.3A2.093,2.093,0,0,1,33.48,2.093V23.018a2.093,2.093,0,0,1-2.093,2.093H2.093A2.093,2.093,0,0,1,0,23.018V2.093A2.093,2.093,0,0,1,2.093,0Z" transform="translate(112.995 50.22)" fill="#090814" opacity="0.348"/><path d="M86.018,135.486H21.466A21.487,21.487,0,0,1,0,114.029V50.714A14.746,14.746,0,0,1,14.708,36.009h4.965A37.119,37.119,0,0,1,29.73,10.556a32.616,32.616,0,0,1,48.048,0A37.087,37.087,0,0,1,87.835,36.009h4.957a14.745,14.745,0,0,1,14.7,14.706v63.314a21.488,21.488,0,0,1-21.478,21.457ZM53.754,59.442a12.576,12.576,0,0,0-5.718,23.781v19.671H59.472V83.223A12.579,12.579,0,0,0,55.726,59.6,12.714,12.714,0,0,0,53.754,59.442Zm0-50.294a23.828,23.828,0,0,0-17.565,7.871,28.122,28.122,0,0,0-7.368,18.99H78.679a28.109,28.109,0,0,0-7.364-18.99A23.834,23.834,0,0,0,53.75,9.148Z" transform="translate(46.685 326.429)" fill="#e6e6e6"/></g><path d="M17.725,30.2,0,38.6C7.271,28.452,13.533,12.607,16.887,0c5.679,11.744,14.832,26.115,23.893,34.7L22.043,29.88C33.586,86.451,77,127.065,126.71,127.065l.7,2.044c-51.931,0-97.918-40.058-109.7-98.906Z" transform="matrix(-0.174, -0.985, 0.985, -0.174, 1142.9, 628.19)" fill="#3f3d56"/><path d="M17.725,98.91,0,90.511c7.271,10.146,13.533,25.99,16.887,38.6,5.679-11.744,14.832-26.115,23.892-34.7l-18.737,4.82C33.586,42.657,77,2.044,126.71,2.044l.7-2.044C75.483,0,29.5,40.058,17.712,98.906Z" transform="matrix(0.174, -0.985, 0.985, 0.174, 647.908, 433.145)" fill="#3f3d56"/><path d="M17.725,30.2,0,38.6C7.271,28.452,13.533,12.607,16.887,0c5.679,11.744,14.832,26.115,23.892,34.7L22.042,29.88C33.586,86.451,77,127.065,126.71,127.065l.7,2.044c-51.931,0-97.918-40.058-109.7-98.906Z" transform="matrix(0.174, 0.985, -0.985, 0.174, 775.055, 600.917)" fill="#3f3d56"/><g transform="translate(555.552 112.426)"><path d="M29.869,173.888l116.493-23.075L116.493,0Q54.665,23.385,0,23.075C31.843,69.781,46.317,119.934,29.869,173.888Z" fill="#d6d6e3"/><path d="M29.871,173.888l116.493-23.075c9.562-68.32.87-119.764-29.871-150.813Q54.665,23.385,0,23.075A415.447,415.447,0,0,1,29.871,173.888Z" transform="translate(16.938 8.858)" fill="#e6e6e6"/></g><g transform="translate(1170.885 278.804)"><path d="M654.4,335.736a7.821,7.821,0,0,0-4.33-7.864l-144.7-70.72a7.8,7.8,0,0,0-10.436,3.579h0l-54.28,111.039a7.814,7.814,0,0,0,3.584,10.436l144.694,70.72a7.814,7.814,0,0,0,10.436-3.584l54.273-111.034a7.749,7.749,0,0,0,.753-2.573Z" transform="translate(-439.868 -256.357)" fill="#e6e6e6"/><path d="M652.449,350.139l-37.893,77.537a2.173,2.173,0,0,1-2.9,1h0L480.03,364.345a1.834,1.834,0,0,1-.268-.159,2.171,2.171,0,0,1-.731-2.743l37.894-77.537a2.172,2.172,0,0,1,2.9-1h0l131.62,64.33a2.173,2.173,0,0,1,1,2.9h0Z" transform="translate(-453.705 -265.707)" fill="#fff"/><circle cx="19.06" cy="19.06" r="19.06" transform="translate(64.132 42.368)" fill="#C50909"/><path d="M565.732,423.962l-84.011-41.057a1.909,1.909,0,0,1-.3-.183l73.368-49.407a3.1,3.1,0,0,1,4.842,2.366l4.093,59.222.2,2.834Z" transform="translate(-454.627 -283.506)" fill="#090814"/><path d="M385.241,314.846l-28.683-14.018,24.077-13.571,1.734-.977.866-.49.2,2.834Z" transform="translate(-274.135 -174.39)" opacity="0.2" style="isolation:isolate"/><path d="M644.711,472.087l-72.662-35.513L596.126,423l1.734-.978,31.375-17.685a4.133,4.133,0,0,1,5.669,2.365,3.685,3.685,0,0,1,.1.459Z" transform="translate(-486.828 -308.771)" fill="#090814"/></g><g transform="translate(516.227 715.066)"><path d="M416.257,273.638,347.131,362.2a7.358,7.358,0,0,0,1.271,10.311c16.053,38.977,64.078,67.88,120.574,94.115a7.353,7.353,0,0,0,10.311-1.271l69.126-88.559a7.353,7.353,0,0,0-1.271-10.311c-47.41-26.771-88.159-57.787-120.574-94.115a7.358,7.358,0,0,0-10.311,1.271Z" transform="translate(-345.58 -270.816)" fill="#e6e6e6"/><path d="M545.828,376.789l-21.041,26.956a78.768,78.768,0,0,1-110.236,13.585L355.584,371.3a4.185,4.185,0,0,1-.729-5.867l66.8-85.575a4.185,4.185,0,0,1,5.868-.718c29.829,38.518,69.757,68.492,117.585,91.783a4.181,4.181,0,0,1,.723,5.862Z" transform="translate(-347.847 -272.827)" fill="#fff"/><path d="M433.974,339.584l-13.7,17.555a2.227,2.227,0,0,1-3.511-2.741l13.7-17.556a2.227,2.227,0,1,1,3.511,2.741Z" transform="translate(-364.676 -288.417)" fill="#d6d6e3"/><path d="M463.123,321.743,433.03,360.3a2.227,2.227,0,0,1-3.511-2.741L459.612,319a2.227,2.227,0,1,1,3.511,2.741Z" transform="translate(-368.122 -283.599)" fill="#d6d6e3"/><path d="M14.669,0A14.669,14.669,0,1,1,0,14.669,14.669,14.669,0,0,1,14.669,0Z" transform="translate(29.006 73.114)" fill="#C50909"/><path d="M462.823,363.556l-36.961,47.351a2.241,2.241,0,0,1-3.511-2.741l36.961-47.351a2.241,2.241,0,0,1,3.511,2.741Z" transform="translate(-366.225 -294.942)" fill="#d6d6e3"/><path d="M490.26,348.745l-51.588,66.091a2.241,2.241,0,0,1-3.511-2.741L486.749,346a2.241,2.241,0,0,1,3.511,2.741Z" transform="translate(-369.684 -290.941)" fill="#d6d6e3"/><path d="M495.427,389l-36.961,47.351a2.241,2.241,0,0,1-3.511-2.741l36.961-47.351A2.241,2.241,0,0,1,495.427,389Z" transform="translate(-375.03 -301.815)" fill="#d6d6e3"/><path d="M562.427,397l-36.961,47.351a2.241,2.241,0,0,1-3.511-2.741l36.961-47.351A2.241,2.241,0,0,1,562.427,397Z" transform="translate(-393.125 -303.975)" fill="#C50909"/><path d="M522.863,374.194l-51.588,66.091a2.241,2.241,0,0,1-3.511-2.741l51.588-66.091a2.242,2.242,0,0,1,3.511,2.741Z" transform="translate(-378.49 -297.815)" fill="#d6d6e3"/></g></g></svg>