<svg width="32" height="32" viewBox="0 0 32 32" fill="none" xmlns="http://www.w3.org/2000/svg">
<path d="M18.0393 11.1356C17.2761 11.6798 16.3421 11.9998 15.3334 11.9998C12.756 11.9998 10.6667 9.9105 10.6667 7.33317C10.6667 4.75584 12.756 2.6665 15.3334 2.6665C17.004 2.6665 18.4696 3.54439 19.294 4.86403M8.00002 26.7827H11.4804C11.9342 26.7827 12.3852 26.8367 12.8251 26.9447L16.5025 27.8383C17.3005 28.0327 18.1317 28.0516 18.938 27.895L23.004 27.104C24.0781 26.8948 25.0661 26.3804 25.8405 25.6272L28.7172 22.8288C29.5387 22.031 29.5387 20.7364 28.7172 19.9373C27.9776 19.2178 26.8063 19.1368 25.9695 19.7469L22.6168 22.193C22.1367 22.544 21.5524 22.7329 20.9516 22.7329H17.714L19.7748 22.7329C20.9363 22.7329 21.8772 21.8176 21.8772 20.6877V20.2787C21.8772 19.3405 21.2208 18.5225 20.2855 18.2957L17.1048 17.5222C16.5872 17.3966 16.0571 17.3332 15.5242 17.3332C14.2378 17.3332 11.9092 18.3983 11.9092 18.3983L8.00002 20.033M26.6667 8.6665C26.6667 11.2438 24.5773 13.3332 22 13.3332C19.4227 13.3332 17.3334 11.2438 17.3334 8.6665C17.3334 6.08918 19.4227 3.99984 22 3.99984C24.5773 3.99984 26.6667 6.08918 26.6667 8.6665ZM2.66669 19.4665L2.66669 27.1998C2.66669 27.9466 2.66669 28.3199 2.81201 28.6052C2.93984 28.856 3.14382 29.06 3.3947 29.1878C3.67991 29.3332 4.05328 29.3332 4.80002 29.3332H5.86669C6.61342 29.3332 6.98679 29.3332 7.27201 29.1878C7.52289 29.06 7.72686 28.856 7.8547 28.6052C8.00002 28.3199 8.00002 27.9466 8.00002 27.1998V19.4665C8.00002 18.7198 8.00002 18.3464 7.8547 18.0612C7.72686 17.8103 7.52289 17.6063 7.27201 17.4785C6.98679 17.3332 6.61342 17.3332 5.86669 17.3332L4.80002 17.3332C4.05328 17.3332 3.67992 17.3332 3.3947 17.4785C3.14382 17.6063 2.93984 17.8103 2.81201 18.0612C2.66669 18.3464 2.66669 18.7198 2.66669 19.4665Z" stroke="black" stroke-width="2" stroke-linecap="round" stroke-linejoin="round"/>
</svg>
