<!--?xml version="1.0" encoding="UTF-8"?-->
<svg width="100%" height="100%" viewBox="0 0 2975 2512" xmlns="http://www.w3.org/2000/svg">
  <style>
    @keyframes animate-fill {
      0%, 15.79% {
        fill: transparent;
      }

      17.54%, 100% {
        fill: rgb(197, 9, 9);
      }
  
    }

    #tl, #tr, #bl, #br {
      animation-iteration-count: infinite;
    }

    #tl {
      -webkit-animation: animate-fill 0.95s linear 0s infinite;
      animation: animate-fill 0.95s linear 0s infinite;
    }

    #tr {
      -webkit-animation: animate-fill 0.95s linear 0.05s infinite;
      animation: animate-fill 0.95s linear 0.05s infinite;

    }

    #bl {
      -webkit-animation: animate-fill 0.95s linear 0.1s infinite;
      animation: animate-fill 0.95s linear 0.1s infinite;

    }

    #br {
      -webkit-animation: animate-fill 0.95s linear 0.15s infinite;
      animation: animate-fill 0.95s linear 0.15s infinite;
    }
  </style>
  <path id="br" d="M 1512.771973 1936.160889 C 1512.765625 1924.166504 1512.911621 1912.169434 1512.687988 1900.179199 C 1512.575684 1894.158691 1514.853271 1890.129883 1520.251221 1887.379639 C 1533.006836 1880.880127 1545.56665 1873.996582 1558.320801 1867.493896 C 1610.544434 1840.868408 1662.831543 1814.367432 1715.056396 1787.744751 C 1777.368652 1755.97998 1839.641357 1724.137207 1901.931885 1692.329468 C 1933.668945 1676.123169 1965.400879 1659.906982 1997.146729 1643.717529 C 2031.861084 1626.01416 2066.598145 1608.354614 2101.305176 1590.636719 C 2113.167236 1584.581299 2124.937744 1578.346802 2136.818604 1572.329346 C 2139.953857 1570.741333 2143.343994 1569.65686 2148.187988 1567.709717 C 2148.641113 1573.035645 2148.963379 1576.825195 2149.45752 1581.862549 C 2149.939453 1583.707886 2150.249756 1584.305176 2150.559814 1584.902466 C 2150.599365 1604.89209 2150.877197 1624.884521 2150.628662 1644.870605 C 2150.135986 1684.483276 2149.218018 1724.090942 2148.813965 1763.704102 C 2148.741211 1770.830322 2146.552002 1776.406738 2142.101563 1781.828613 C 2103.860107 1828.419189 2065.721191 1875.094482 2027.672363 1921.842773 C 1985.626465 1973.502197 1943.764648 2025.311768 1901.662598 2076.925537 C 1896.187744 2083.637207 1893.294189 2091.169434 1891.490479 2099.391113 C 1881.502686 2144.927734 1871.453857 2190.451416 1861.481689 2235.991455 C 1856.49585 2258.761475 1851.481934 2281.527588 1846.797119 2304.360352 C 1845.418213 2311.080811 1842.149658 2315.60791 1836.222412 2319.089355 C 1803.200684 2338.487305 1770.343506 2358.165039 1737.401855 2377.699707 C 1695.292969 2402.67041 1653.1604 2427.60083 1611.033203 2452.540527 C 1580.082764 2470.863525 1549.135254 2489.191406 1518.152588 2507.460205 C 1515.415283 2509.074219 1512.429688 2510.267334 1507.990234 2512.415039 C 1507.439941 2507.664307 1506.759766 2504.550049 1506.767822 2501.4375 C 1506.85376 2468.458984 1507.048828 2435.480713 1507.216064 2402.502441 C 1507.220947 2401.503174 1507.257324 2400.503662 1507.265137 2399.504395 C 1507.74292 2338.229248 1508.245117 2276.954102 1508.687256 2215.678711 C 1508.963623 2177.370117 1509.149658 2139.061035 1509.646973 2099.37085 C 1510.203125 2097.381836 1510.488525 2096.774414 1510.773682 2096.166748 C 1510.970947 2044.364258 1511.168213 1992.562012 1511.634766 1939.375488 C 1512.193359 1937.381348 1512.482666 1936.77124 1512.771973 1936.160889 Z"></path>
  <path id="bl" d="M 823.599121 1737.155884 C 823.502075 1734.160278 823.333252 1731.164917 823.318848 1728.168945 C 823.100586 1682.53772 822.883911 1636.906616 822.726563 1591.275146 C 822.709351 1586.285645 822.863892 1581.278442 823.28186 1576.308228 C 824.096558 1566.619995 825.812378 1565.531982 834.31958 1569.538452 C 843.659058 1573.93689 852.904541 1578.544067 862.099976 1583.238281 C 892.943848 1598.984863 923.725098 1614.853638 954.570923 1630.596436 C 1002.915771 1655.270386 1051.289795 1679.887085 1099.658447 1704.514038 C 1133.782715 1721.888672 1167.928711 1739.220581 1202.046387 1756.607788 C 1231.713379 1771.726807 1261.371826 1786.862549 1291.002686 1802.051636 C 1343.447754 1828.935669 1395.819336 1855.963745 1448.350098 1882.679199 C 1456.98877 1887.07251 1461.06543 1892.637695 1460.92041 1902.874512 C 1460.491211 1933.173828 1461.024414 1963.488525 1461.319824 1993.795898 C 1461.939697 2057.38916 1462.674316 2120.981201 1463.313232 2184.574219 C 1464.005371 2253.495361 1464.621582 2322.417236 1465.311523 2391.338379 C 1465.698242 2429.953369 1466.167969 2468.567383 1466.304199 2508.355469 C 1465.671143 2509.848389 1465.348877 2510.182373 1465.041504 2510.53125 C 1454.279541 2504.583496 1443.358398 2498.904785 1432.781494 2492.644043 C 1373.76001 2457.70752 1314.828613 2422.618896 1255.853027 2387.604736 C 1216.630371 2364.317627 1177.4646 2340.932617 1138.075928 2317.929688 C 1131.12207 2313.868408 1127.624268 2308.727295 1125.945068 2300.93457 C 1111.708984 2234.870361 1097.030518 2168.900879 1082.7771 2102.840332 C 1080.125732 2090.55249 1075.532227 2079.807129 1067.417969 2069.910889 C 1008.310303 1997.823975 949.581177 1925.426758 890.715698 1853.141235 C 870.954834 1828.875122 851.260742 1804.552979 831.273682 1780.474121 C 826.503906 1774.727905 824.227905 1768.720215 824.63855 1761.314087 C 825.006836 1754.671997 824.749146 1747.995239 824.629883 1740.016113 C 824.230103 1738.163696 823.932373 1737.649536 823.599121 1737.155884 Z"></path>
  <path id="tr" d="M 2275.431641 1548.616211 C 2241.063721 1539.853394 2207.47583 1531.346313 2173.947266 1522.611328 C 2166.316406 1520.623413 2159.03125 1520.61731 2151.327881 1522.518677 C 2077.582031 1540.719482 2003.784424 1558.711304 1929.998291 1576.748901 C 1840.678467 1598.584106 1751.359131 1620.420288 1662.031982 1642.226318 C 1620.605469 1652.338989 1579.165771 1662.398315 1537.723633 1672.448242 C 1519.654297 1676.8302 1519.374268 1676.535156 1519.277832 1657.827637 C 1519.119873 1627.170776 1519.035889 1596.512451 1518.646973 1565.858276 C 1518.127197 1524.894653 1517.343018 1483.934448 1516.676758 1442.972778 C 1516.010498 1402.010742 1515.345459 1361.048706 1514.686768 1320.08667 C 1514.011719 1278.126099 1513.342285 1236.165405 1512.675781 1194.204834 C 1512.009521 1152.244141 1511.348389 1110.283569 1510.687988 1068.322876 C 1510.011475 1025.362427 1509.324219 982.4021 1508.668701 939.441284 C 1507.992676 895.147583 1507.416992 850.852295 1506.668213 806.559814 C 1506.13916 775.261963 1505.394043 743.967773 1504.751221 712.671875 C 1504.709961 710.672852 1504.951416 708.63855 1504.664063 706.678955 C 1503.126953 696.194702 1507.477539 690.482178 1517.512939 686.533936 C 1542.305664 676.779053 1566.63623 665.849365 1591.164551 655.420898 C 1660.454834 625.960938 1729.744629 596.500732 1799.053955 567.086182 C 1806.407471 563.965332 1813.877197 561.116699 1821.312988 558.191895 C 1833.033203 553.582031 1833.237061 553.462158 1840.660645 564.053467 C 1853.088379 581.785156 1865.173584 599.756592 1877.514648 617.549561 C 1920.424561 679.414307 1963.364258 741.258545 2006.341309 803.076416 C 2012.59375 812.069824 2013.926514 812.526001 2024.708252 808.89502 C 2073.651855 792.41272 2122.548096 775.789795 2171.482178 759.279297 C 2217.259277 743.83374 2263.078857 728.514404 2308.849854 713.050537 C 2357.773926 696.521362 2406.68335 679.94812 2455.561279 663.283203 C 2503.490967 646.94165 2551.380859 630.482422 2599.270264 614.023193 C 2609.348877 610.559326 2609.78418 609.693848 2607.089844 599.606934 C 2576.397949 484.712402 2545.67627 369.825684 2514.978271 254.932617 C 2493.308594 173.829346 2471.654297 92.721924 2450.037354 11.604492 C 2449.111084 8.12793 2448.629395 4.532959 2449.460205 -0.204346 C 2451.252686 1.713623 2453.273193 3.466309 2454.803223 5.574951 C 2476.716797 35.774902 2498.612549 65.988037 2520.418213 96.265869 C 2567.727783 161.956787 2614.995117 227.678223 2662.258057 293.402832 C 2718.468262 371.569824 2774.660156 449.750488 2830.85083 527.931885 C 2876.348389 591.23584 2921.843506 654.541748 2967.294434 717.87915 C 2969.951904 721.582153 2972.205078 725.575684 2975.214111 730.331421 C 2933.168945 762.744629 2890.991943 793.556885 2849.013184 824.629639 C 2806.969727 855.750366 2764.932129 886.879639 2722.87085 917.976685 C 2680.811279 949.072876 2638.748779 980.165283 2596.644531 1011.201172 C 2554.541748 1042.235596 2512.281006 1073.057007 2470.28125 1104.230225 C 2428.426514 1135.296021 2386.0979 1165.74353 2343.503418 1198.102783 C 2347.255859 1201.642944 2349.407715 1204.072998 2351.94043 1206.003418 C 2402.551025 1244.574097 2453.275879 1282.994873 2503.832764 1321.63562 C 2564.182373 1367.761353 2624.405273 1414.053223 2684.644287 1460.323486 C 2687.978027 1462.884033 2690.957031 1465.90625 2695.728027 1470.166016 C 2689.669678 1472.320679 2685.582275 1474.116577 2681.316895 1475.234619 C 2657.470215 1481.485596 2633.592529 1487.618652 2609.703857 1493.707886 C 2522.860352 1515.844238 2435.97876 1537.831055 2349.200195 1560.218872 C 2339.100586 1562.824341 2329.695801 1562.734985 2319.804443 1559.955933 C 2305.373779 1555.901855 2290.765869 1552.480469 2275.431641 1548.616211 Z"></path>
  <path id="tl" d="M 1004.116211 748.091064 C 1046.648926 686.298706 1088.741699 625.078613 1130.893066 563.898926 C 1140.053467 550.603516 1140.10791 550.770264 1154.766602 557.003906 C 1201.676514 576.952393 1248.62915 596.799316 1295.549316 616.723389 C 1349.519043 639.640869 1403.414063 662.735229 1457.491699 685.394287 C 1465.778564 688.866455 1469.050049 693.536377 1468.872314 702.657471 C 1467.834229 755.947388 1467.393311 809.248779 1466.615723 862.544189 C 1466.095947 898.178345 1465.284424 933.808228 1464.725098 969.441895 C 1463.972656 1017.403564 1463.374756 1065.367432 1462.639404 1113.329224 C 1462.052246 1151.628784 1461.340576 1189.92627 1460.717041 1228.22522 C 1460.012207 1271.52124 1459.362061 1314.818237 1458.654541 1358.114258 C 1458.029053 1396.412964 1457.346191 1434.710449 1456.709229 1473.008911 C 1456.016602 1514.640137 1455.448242 1556.27356 1454.626953 1597.9021 C 1454.206299 1619.205322 1453.356934 1640.500122 1452.683105 1661.798096 C 1452.620117 1663.793091 1452.566162 1665.805176 1452.265381 1667.772217 C 1451.719727 1671.338867 1449.467529 1673.002197 1445.930908 1672.561768 C 1442.967529 1672.193115 1440.009277 1671.648193 1437.108154 1670.937866 C 1384.681152 1658.10022 1332.269043 1645.201294 1279.841797 1632.364502 C 1189.229492 1610.178101 1098.609863 1588.021606 1007.991455 1565.860107 C 950.061157 1551.692627 892.056152 1537.822266 834.242432 1523.194946 C 818.278198 1519.155762 803.244629 1518.883301 787.198975 1523.263428 C 742.207397 1535.545166 696.852661 1546.490479 651.749756 1558.375 C 642.026001 1560.937012 632.937134 1560.665771 623.311523 1558.184814 C 552.976929 1540.055664 482.566162 1522.222046 412.195313 1504.233765 C 372.493408 1494.085205 332.812378 1483.854004 293.147827 1473.560669 C 288.519897 1472.359619 284.056641 1470.524902 277.696411 1468.365967 C 281.721069 1464.470581 284.038696 1461.748535 286.810303 1459.616455 C 335.132813 1422.440918 383.459473 1385.269897 431.891357 1348.236938 C 484.296753 1308.165527 536.813354 1268.239746 589.277588 1228.245361 C 599.610962 1220.368042 609.956543 1212.506348 620.231201 1204.552856 C 623.036499 1202.381104 625.604004 1199.9021 629.284058 1196.687744 C 624.656006 1192.81665 621.085938 1189.495483 617.187012 1186.619751 C 562.75769 1146.473267 508.270142 1106.405762 453.823364 1066.282959 C 387.842041 1017.660034 321.82251 969.088623 255.934937 920.338989 C 175.581421 860.885864 95.345337 801.27417 15.071167 741.713867 C 11.326172 738.935181 7.570313 736.144043 4.059082 733.08374 C -1.564941 728.181641 -1.819946 726.699219 2.479126 720.524414 C 11.618164 707.398193 20.903564 694.372559 30.237427 681.383667 C 100.425537 583.710938 170.611938 486.037109 240.854248 388.40332 C 312.848145 288.335205 384.897095 188.306641 456.938477 88.272949 C 476.992065 60.427246 497.088501 32.612793 517.217651 4.822021 C 518.907959 2.488281 520.998413 0.44458 524.793579 -1.155029 C 524.316284 1.865967 524.101074 4.956299 523.322266 7.897217 C 511.894043 51.052979 500.41626 94.195557 488.899902 137.327637 C 465.351685 225.522705 441.768677 313.708496 418.20813 401.900391 C 400.838013 466.920166 383.480591 531.943359 366.115479 596.964355 C 365.857544 597.930176 365.527588 598.878418 365.309937 599.852539 C 363.553101 607.716309 363.983521 608.503906 372.001343 611.428223 C 377.634644 613.48291 383.282837 615.500488 388.960938 617.427246 C 443.862915 636.055664 498.769043 654.671875 553.680908 673.270874 C 638.259888 701.918457 722.845093 730.547363 807.426025 759.189209 C 852.870239 774.577881 898.310791 789.977661 943.754272 805.368652 C 945.963623 806.116943 948.167847 806.88916 950.405396 807.544434 C 958.917114 810.036621 960.439819 809.736572 965.629639 802.532471 C 976.144531 787.935913 986.416748 773.164551 996.789063 758.465332 C 999.091309 755.202637 1001.394531 751.94043 1004.116211 748.091064 Z"></path>
</svg>